<svg width="104" height="104" viewBox="0 0 104 104" fill="none" xmlns="http://www.w3.org/2000/svg">
<g filter="url(#filter0_d_101_2549)">
<mask id="path-1-inside-1_101_2549" fill="white">
<path d="M92.5197 52C94.4418 52 96.0143 50.4394 95.8625 48.5233C95.2146 40.3485 92.2919 32.4918 87.3924 25.8585C81.8016 18.2892 73.9314 12.7118 64.9373 9.94496C55.9431 7.17811 46.2989 7.36764 37.4204 10.4857C28.5419 13.6038 20.8969 19.4862 15.6079 27.2692C10.3188 35.0522 7.66426 44.3259 8.03397 53.7287C8.40369 63.1315 11.7782 72.1682 17.662 79.5119C23.5459 86.8556 31.6291 92.1195 40.725 94.5309C48.6962 96.644 57.0771 96.4689 64.9162 94.0616C66.7537 93.4973 67.6257 91.4607 66.9181 89.6736C66.2104 87.8865 64.191 87.0285 62.3454 87.5654C55.8988 89.4406 49.0404 89.5343 42.5087 87.8027C34.8517 85.7728 28.0472 81.3416 23.0941 75.1597C18.1411 68.9777 15.3004 61.3706 14.9892 53.4552C14.6779 45.5399 16.9125 37.7333 21.3649 31.1815C25.8173 24.6297 32.2529 19.6779 39.7268 17.0531C47.2008 14.4282 55.3194 14.2687 62.8907 16.5978C70.462 18.927 77.0871 23.6221 81.7935 29.9939C85.8082 35.4293 88.2462 41.8405 88.8761 48.5247C89.0564 50.4383 90.5976 52 92.5197 52Z"/>
</mask>
<path d="M92.5197 52C94.4418 52 96.0143 50.4394 95.8625 48.5233C95.2146 40.3485 92.2919 32.4918 87.3924 25.8585C81.8016 18.2892 73.9314 12.7118 64.9373 9.94496C55.9431 7.17811 46.2989 7.36764 37.4204 10.4857C28.5419 13.6038 20.8969 19.4862 15.6079 27.2692C10.3188 35.0522 7.66426 44.3259 8.03397 53.7287C8.40369 63.1315 11.7782 72.1682 17.662 79.5119C23.5459 86.8556 31.6291 92.1195 40.725 94.5309C48.6962 96.644 57.0771 96.4689 64.9162 94.0616C66.7537 93.4973 67.6257 91.4607 66.9181 89.6736C66.2104 87.8865 64.191 87.0285 62.3454 87.5654C55.8988 89.4406 49.0404 89.5343 42.5087 87.8027C34.8517 85.7728 28.0472 81.3416 23.0941 75.1597C18.1411 68.9777 15.3004 61.3706 14.9892 53.4552C14.6779 45.5399 16.9125 37.7333 21.3649 31.1815C25.8173 24.6297 32.2529 19.6779 39.7268 17.0531C47.2008 14.4282 55.3194 14.2687 62.8907 16.5978C70.462 18.927 77.0871 23.6221 81.7935 29.9939C85.8082 35.4293 88.2462 41.8405 88.8761 48.5247C89.0564 50.4383 90.5976 52 92.5197 52Z" fill="#D9D9D9"/>
<path d="M92.5197 52C94.4418 52 96.0143 50.4394 95.8625 48.5233C95.2146 40.3485 92.2919 32.4918 87.3924 25.8585C81.8016 18.2892 73.9314 12.7118 64.9373 9.94496C55.9431 7.17811 46.2989 7.36764 37.4204 10.4857C28.5419 13.6038 20.8969 19.4862 15.6079 27.2692C10.3188 35.0522 7.66426 44.3259 8.03397 53.7287C8.40369 63.1315 11.7782 72.1682 17.662 79.5119C23.5459 86.8556 31.6291 92.1195 40.725 94.5309C48.6962 96.644 57.0771 96.4689 64.9162 94.0616C66.7537 93.4973 67.6257 91.4607 66.9181 89.6736C66.2104 87.8865 64.191 87.0285 62.3454 87.5654C55.8988 89.4406 49.0404 89.5343 42.5087 87.8027C34.8517 85.7728 28.0472 81.3416 23.0941 75.1597C18.1411 68.9777 15.3004 61.3706 14.9892 53.4552C14.6779 45.5399 16.9125 37.7333 21.3649 31.1815C25.8173 24.6297 32.2529 19.6779 39.7268 17.0531C47.2008 14.4282 55.3194 14.2687 62.8907 16.5978C70.462 18.927 77.0871 23.6221 81.7935 29.9939C85.8082 35.4293 88.2462 41.8405 88.8761 48.5247C89.0564 50.4383 90.5976 52 92.5197 52Z" stroke="#16BF54" stroke-width="10" mask="url(#path-1-inside-1_101_2549)"/>
</g>
<defs>
<filter id="filter0_d_101_2549" x="0" y="0" width="103.873" height="104" filterUnits="userSpaceOnUse" color-interpolation-filters="sRGB">
<feFlood flood-opacity="0" result="BackgroundImageFix"/>
<feColorMatrix in="SourceAlpha" type="matrix" values="0 0 0 0 0 0 0 0 0 0 0 0 0 0 0 0 0 0 127 0" result="hardAlpha"/>
<feMorphology radius="3" operator="dilate" in="SourceAlpha" result="effect1_dropShadow_101_2549"/>
<feOffset/>
<feGaussianBlur stdDeviation="2.5"/>
<feComposite in2="hardAlpha" operator="out"/>
<feColorMatrix type="matrix" values="0 0 0 0 1 0 0 0 0 1 0 0 0 0 1 0 0 0 0.9 0"/>
<feBlend mode="normal" in2="BackgroundImageFix" result="effect1_dropShadow_101_2549"/>
<feBlend mode="normal" in="SourceGraphic" in2="effect1_dropShadow_101_2549" result="shape"/>
</filter>
</defs>
</svg>
